<svg version="1.1" viewBox="0 0 512 512" xmlns="http://www.w3.org/2000/svg">
	<path d="m42.666016 49.777344c-23.555556 0-42.666016 19.112413-42.666016 42.667968v42.666018c0 15.73333 12.71198 28.44336 28.445312 28.44336h14.220704 42.667968v-71.109378c0-23.555554-19.112413-42.667968-42.667968-42.667968zm56.888672 0c8.888882 11.911111 14.222652 26.667968 14.222652 42.667968v270.22071c0 31.37777 25.5109 56.88867 56.88868 56.88867 31.37777 0 56.88867-25.5109 56.88867-56.88867v-4.71094c0-28.8 23.37773-52.17774 52.17773-52.17774h146.9336v-170.66601c0-47.111112-38.22093-85.333986-85.33204-85.333986h-241.77929zm230.08398 29.542968c6.38731 0 12.77458 2.438649 17.65039 7.314454l15.33008 15.367184c9.75162 9.75162 9.75162 25.54916 0 35.30078l-18.87891 18.87891-13.22461-13.22266-37.44531-37.44531 4.44727-4.4082 8.81445-8.816408 5.61719-5.654296h0.03906c4.87581-4.875805 11.26308-7.314454 17.65039-7.314454zm-45.38476 35.046878 13.22461 13.22265 24.22265 24.22461 13.22266 13.22266-4.40821 4.4082-8.81445 8.85352-77.70117 77.70117c-4.05667 4.05668-9.08798 7.02189-14.58789 8.66016l-46.92578 13.80664c-3.27654 0.93615-6.78673 0.0395-9.24414-2.37891-2.4574-2.4184-3.35407-5.9676-2.37891-9.24414l13.8086-46.96289c1.63826-5.49991 4.60153-10.53317 8.6582-14.58984l77.70117-77.70118 8.81641-8.81445 4.40625-4.4082zm4.79882 27.16797c-1.59926 0-3.199 0.60525-4.4082 1.81445l-56.16992 56.16992c-2.4184 2.4184-2.4184 6.39605 0 8.81445 2.41841 2.41841 6.39801 2.41841 8.81641 0l56.16992-56.16992c2.4184-2.41841 2.4184-6.39605 0-8.81445-1.20921-1.2092-2.80894-1.81445-4.40821-1.81445zm-74.89257 74.91211-8.85547 3.54882c-1.2092 1.52125-2.14532 3.27814-2.69141 5.18946l-8.9707 30.46289 30.5039-8.97071c1.87231-0.5851 3.62724-1.4822 5.1875-2.6914l3.53321-8.81641h-12.4668c-3.43256 0-6.24023-2.80766-6.24023-6.24023v-12.48242zm65.57226 117.77539c-13.06666 0-23.73242 10.57686-23.73242 23.73242v4.71094c0 47.11111-38.22287 85.33398-85.33398 85.33398h156.44531 85.33398c55.02223 0 99.55469-44.53246 99.55469-99.55469 0-7.82222-6.40044-14.22265-14.22266-14.22265h-218.04492z" fill="#22774a" stroke-width=".888889"/>
</svg>
